<svg id="Layer_1" data-name="Layer 1" xmlns="http://www.w3.org/2000/svg" viewBox="0 0 183 183"><defs><style>.cls-1{fill:#fff;fill-rule:evenodd;}</style></defs><path class="cls-1" d="M173.28,20.41a12.63,12.63,0,0,0-16.13,7.69L115,147.25a12.64,12.64,0,0,0,23.83,8.44L181,36.53A12.62,12.62,0,0,0,173.28,20.41Z"/><path class="cls-1" d="M123.83,86.46,101.28,29l-.18,0a12.62,12.62,0,0,0-23.95-.67L33.82,147.08a12.64,12.64,0,0,0,23.76,8.66L89.51,68.2l10.78,27.49a12.64,12.64,0,0,0,23.54-9.23Z"/><path class="cls-1" d="M42.67,90.85,42.42,90l.15,0L28.4,36.72l-1.48-5.59h0l-.77-2.86A12.64,12.64,0,0,0,1.72,34.78L4,43.34l14.23,54a12.64,12.64,0,0,0,24.44-6.44Z"/></svg>